<mxfile host="app.diagrams.net" modified="2024-06-27T18:43:52.198Z" agent="Mozilla/5.0 (Windows NT 10.0; Win64; x64) AppleWebKit/537.36 (KHTML, like Gecko) Chrome/126.0.0.0 Safari/537.36" etag="xINrHBQ-6mSB0mtGxieu" version="24.6.3" type="device">
  <diagram name="Page-1" id="2YBvvXClWsGukQMizWep">
    <mxGraphModel dx="2140" dy="522" grid="1" gridSize="10" guides="1" tooltips="1" connect="1" arrows="1" fold="1" page="1" pageScale="1" pageWidth="850" pageHeight="1100" math="0" shadow="0">
      <root>
        <mxCell id="0" />
        <mxCell id="1" parent="0" />
        <mxCell id="F2SxSTT8hz7Iwo73es0D-1" value="ticket:Ticket" style="shape=umlLifeline;perimeter=lifelinePerimeter;whiteSpace=wrap;html=1;container=1;dropTarget=0;collapsible=0;recursiveResize=0;outlineConnect=0;portConstraint=eastwest;newEdgeStyle={&quot;curved&quot;:0,&quot;rounded&quot;:0};" parent="1" vertex="1">
          <mxGeometry x="615" y="70" width="90" height="510" as="geometry" />
        </mxCell>
        <mxCell id="1erLHwJ0Aa95xsLBbJs--4" value="calcularTotal()" style="html=1;align=left;spacingLeft=2;endArrow=block;rounded=0;edgeStyle=orthogonalEdgeStyle;curved=0;rounded=0;" edge="1" target="F2SxSTT8hz7Iwo73es0D-5" parent="F2SxSTT8hz7Iwo73es0D-1">
          <mxGeometry relative="1" as="geometry">
            <mxPoint x="50" y="430" as="sourcePoint" />
            <Array as="points">
              <mxPoint x="80" y="430" />
              <mxPoint x="80" y="460" />
            </Array>
            <mxPoint x="55" y="460" as="targetPoint" />
          </mxGeometry>
        </mxCell>
        <mxCell id="F2SxSTT8hz7Iwo73es0D-5" value="" style="html=1;points=[[0,0,0,0,5],[0,1,0,0,-5],[1,0,0,0,5],[1,1,0,0,-5]];perimeter=orthogonalPerimeter;outlineConnect=0;targetShapes=umlLifeline;portConstraint=eastwest;newEdgeStyle={&quot;curved&quot;:0,&quot;rounded&quot;:0};" parent="1" vertex="1">
          <mxGeometry x="655" y="244" width="10" height="316" as="geometry" />
        </mxCell>
        <mxCell id="F2SxSTT8hz7Iwo73es0D-3" value="item:Item" style="shape=umlLifeline;perimeter=lifelinePerimeter;whiteSpace=wrap;html=1;container=1;dropTarget=0;collapsible=0;recursiveResize=0;outlineConnect=0;portConstraint=eastwest;newEdgeStyle={&quot;curved&quot;:0,&quot;rounded&quot;:0};" parent="1" vertex="1">
          <mxGeometry x="757.5" y="70" width="85" height="510" as="geometry" />
        </mxCell>
        <mxCell id="F2SxSTT8hz7Iwo73es0D-4" value="loop&lt;div&gt;for each&lt;/div&gt;" style="shape=umlFrame;whiteSpace=wrap;html=1;pointerEvents=0;" parent="1" vertex="1">
          <mxGeometry x="630" y="264" width="200" height="220" as="geometry" />
        </mxCell>
        <mxCell id="F2SxSTT8hz7Iwo73es0D-7" value="" style="html=1;points=[[0,0,0,0,5],[0,1,0,0,-5],[1,0,0,0,5],[1,1,0,0,-5]];perimeter=orthogonalPerimeter;outlineConnect=0;targetShapes=umlLifeline;portConstraint=eastwest;newEdgeStyle={&quot;curved&quot;:0,&quot;rounded&quot;:0};" parent="1" vertex="1">
          <mxGeometry x="795" y="294" width="10" height="180" as="geometry" />
        </mxCell>
        <mxCell id="F2SxSTT8hz7Iwo73es0D-8" value="getCant()" style="html=1;verticalAlign=bottom;endArrow=block;curved=0;rounded=0;" parent="1" target="F2SxSTT8hz7Iwo73es0D-7" edge="1">
          <mxGeometry width="80" relative="1" as="geometry">
            <mxPoint x="665" y="304" as="sourcePoint" />
            <mxPoint x="815" y="304" as="targetPoint" />
          </mxGeometry>
        </mxCell>
        <mxCell id="F2SxSTT8hz7Iwo73es0D-9" value="return int" style="html=1;verticalAlign=bottom;endArrow=open;dashed=1;endSize=8;curved=0;rounded=0;" parent="1" source="F2SxSTT8hz7Iwo73es0D-7" edge="1">
          <mxGeometry relative="1" as="geometry">
            <mxPoint x="815" y="329" as="sourcePoint" />
            <mxPoint x="665" y="329" as="targetPoint" />
          </mxGeometry>
        </mxCell>
        <mxCell id="F2SxSTT8hz7Iwo73es0D-11" value="getServicio()" style="html=1;verticalAlign=bottom;endArrow=block;curved=0;rounded=0;" parent="1" target="F2SxSTT8hz7Iwo73es0D-7" edge="1">
          <mxGeometry x="-0.0027" width="80" relative="1" as="geometry">
            <mxPoint x="665" y="359" as="sourcePoint" />
            <mxPoint x="815" y="359" as="targetPoint" />
            <mxPoint as="offset" />
          </mxGeometry>
        </mxCell>
        <mxCell id="F2SxSTT8hz7Iwo73es0D-13" value="return Servicio" style="html=1;verticalAlign=bottom;endArrow=open;dashed=1;endSize=8;curved=0;rounded=0;" parent="1" source="F2SxSTT8hz7Iwo73es0D-7" edge="1">
          <mxGeometry relative="1" as="geometry">
            <mxPoint x="815" y="389" as="sourcePoint" />
            <mxPoint x="665" y="389" as="targetPoint" />
          </mxGeometry>
        </mxCell>
        <mxCell id="F2SxSTT8hz7Iwo73es0D-14" value="getPrecioTotal()" style="html=1;verticalAlign=bottom;endArrow=block;curved=0;rounded=0;" parent="1" target="F2SxSTT8hz7Iwo73es0D-7" edge="1">
          <mxGeometry width="80" relative="1" as="geometry">
            <mxPoint x="665" y="429" as="sourcePoint" />
            <mxPoint x="815" y="429" as="targetPoint" />
          </mxGeometry>
        </mxCell>
        <mxCell id="F2SxSTT8hz7Iwo73es0D-15" value="return double" style="html=1;verticalAlign=bottom;endArrow=open;dashed=1;endSize=8;curved=0;rounded=0;" parent="1" source="F2SxSTT8hz7Iwo73es0D-7" edge="1">
          <mxGeometry relative="1" as="geometry">
            <mxPoint x="815" y="459" as="sourcePoint" />
            <mxPoint x="665" y="459" as="targetPoint" />
          </mxGeometry>
        </mxCell>
        <mxCell id="F2SxSTT8hz7Iwo73es0D-17" value="imprimirTicket()" style="html=1;verticalAlign=bottom;endArrow=block;curved=0;rounded=0;fillColor=#FFFFFF;" parent="1" edge="1" source="F2SxSTT8hz7Iwo73es0D-19">
          <mxGeometry width="80" relative="1" as="geometry">
            <mxPoint x="55" y="254" as="sourcePoint" />
            <mxPoint x="655" y="254" as="targetPoint" />
          </mxGeometry>
        </mxCell>
        <mxCell id="F2SxSTT8hz7Iwo73es0D-18" value="doctor:Doctor" style="shape=umlLifeline;perimeter=lifelinePerimeter;whiteSpace=wrap;html=1;container=1;dropTarget=0;collapsible=0;recursiveResize=0;outlineConnect=0;portConstraint=eastwest;newEdgeStyle={&quot;curved&quot;:0,&quot;rounded&quot;:0};" parent="1" vertex="1">
          <mxGeometry x="-14" y="70" width="100" height="510" as="geometry" />
        </mxCell>
        <mxCell id="F2SxSTT8hz7Iwo73es0D-19" value="" style="html=1;points=[[0,0,0,0,5],[0,1,0,0,-5],[1,0,0,0,5],[1,1,0,0,-5]];perimeter=orthogonalPerimeter;outlineConnect=0;targetShapes=umlLifeline;portConstraint=eastwest;newEdgeStyle={&quot;curved&quot;:0,&quot;rounded&quot;:0};" parent="F2SxSTT8hz7Iwo73es0D-18" vertex="1">
          <mxGeometry x="45" y="60" width="10" height="430" as="geometry" />
        </mxCell>
        <mxCell id="F2SxSTT8hz7Iwo73es0D-20" value="tiene1anio:&lt;div&gt;TratConjunto&lt;/div&gt;" style="shape=umlLifeline;perimeter=lifelinePerimeter;whiteSpace=wrap;html=1;container=1;dropTarget=0;collapsible=0;recursiveResize=0;outlineConnect=0;portConstraint=eastwest;newEdgeStyle={&quot;curved&quot;:0,&quot;rounded&quot;:0};" parent="1" vertex="1">
          <mxGeometry x="120" y="70" width="110" height="510" as="geometry" />
        </mxCell>
        <mxCell id="F2SxSTT8hz7Iwo73es0D-21" value="" style="html=1;points=[[0,0,0,0,5],[0,1,0,0,-5],[1,0,0,0,5],[1,1,0,0,-5]];perimeter=orthogonalPerimeter;outlineConnect=0;targetShapes=umlLifeline;portConstraint=eastwest;newEdgeStyle={&quot;curved&quot;:0,&quot;rounded&quot;:0};" parent="F2SxSTT8hz7Iwo73es0D-20" vertex="1">
          <mxGeometry x="50" y="60" width="10" height="90" as="geometry" />
        </mxCell>
        <mxCell id="F2SxSTT8hz7Iwo73es0D-22" value="add(Servicio)" style="html=1;verticalAlign=bottom;endArrow=block;curved=0;rounded=0;" parent="1" source="F2SxSTT8hz7Iwo73es0D-21" edge="1">
          <mxGeometry width="80" relative="1" as="geometry">
            <mxPoint x="190" y="153" as="sourcePoint" />
            <mxPoint x="289.5" y="153" as="targetPoint" />
          </mxGeometry>
        </mxCell>
        <mxCell id="F2SxSTT8hz7Iwo73es0D-23" value="add(Servicio)" style="html=1;verticalAlign=bottom;endArrow=block;curved=0;rounded=0;entryX=0;entryY=0;entryDx=0;entryDy=5;entryPerimeter=0;" parent="1" source="F2SxSTT8hz7Iwo73es0D-21" edge="1">
          <mxGeometry width="80" relative="1" as="geometry">
            <mxPoint x="190" y="184" as="sourcePoint" />
            <mxPoint x="410" y="184" as="targetPoint" />
          </mxGeometry>
        </mxCell>
        <mxCell id="F2SxSTT8hz7Iwo73es0D-24" value="add(Servicio)" style="html=1;verticalAlign=bottom;endArrow=block;curved=0;rounded=0;" parent="1" source="F2SxSTT8hz7Iwo73es0D-21" edge="1">
          <mxGeometry width="80" relative="1" as="geometry">
            <mxPoint x="190" y="210" as="sourcePoint" />
            <mxPoint x="530.5" y="210" as="targetPoint" />
          </mxGeometry>
        </mxCell>
        <mxCell id="ldjhp6ecMFq0PakG_y3W-2" value="vacunar:&lt;div&gt;TratIndividual&lt;/div&gt;" style="shape=umlLifeline;perimeter=lifelinePerimeter;whiteSpace=wrap;html=1;container=1;dropTarget=0;collapsible=0;recursiveResize=0;outlineConnect=0;portConstraint=eastwest;newEdgeStyle={&quot;curved&quot;:0,&quot;rounded&quot;:0};" parent="1" vertex="1">
          <mxGeometry x="240" y="70" width="110" height="510" as="geometry" />
        </mxCell>
        <mxCell id="ldjhp6ecMFq0PakG_y3W-5" value="" style="html=1;points=[[0,0,0,0,5],[0,1,0,0,-5],[1,0,0,0,5],[1,1,0,0,-5]];perimeter=orthogonalPerimeter;outlineConnect=0;targetShapes=umlLifeline;portConstraint=eastwest;newEdgeStyle={&quot;curved&quot;:0,&quot;rounded&quot;:0};" parent="ldjhp6ecMFq0PakG_y3W-2" vertex="1">
          <mxGeometry x="50" y="73" width="10" height="20" as="geometry" />
        </mxCell>
        <mxCell id="ldjhp6ecMFq0PakG_y3W-3" value="chequeoGeneral:&lt;div&gt;TratIndividual&lt;/div&gt;" style="shape=umlLifeline;perimeter=lifelinePerimeter;whiteSpace=wrap;html=1;container=1;dropTarget=0;collapsible=0;recursiveResize=0;outlineConnect=0;portConstraint=eastwest;newEdgeStyle={&quot;curved&quot;:0,&quot;rounded&quot;:0};" parent="1" vertex="1">
          <mxGeometry x="360" y="70" width="110" height="510" as="geometry" />
        </mxCell>
        <mxCell id="ldjhp6ecMFq0PakG_y3W-6" value="" style="html=1;points=[[0,0,0,0,5],[0,1,0,0,-5],[1,0,0,0,5],[1,1,0,0,-5]];perimeter=orthogonalPerimeter;outlineConnect=0;targetShapes=umlLifeline;portConstraint=eastwest;newEdgeStyle={&quot;curved&quot;:0,&quot;rounded&quot;:0};" parent="ldjhp6ecMFq0PakG_y3W-3" vertex="1">
          <mxGeometry x="50" y="103" width="10" height="20" as="geometry" />
        </mxCell>
        <mxCell id="ldjhp6ecMFq0PakG_y3W-4" value="desparacitacion:&lt;div&gt;TratIndividual&lt;/div&gt;" style="shape=umlLifeline;perimeter=lifelinePerimeter;whiteSpace=wrap;html=1;container=1;dropTarget=0;collapsible=0;recursiveResize=0;outlineConnect=0;portConstraint=eastwest;newEdgeStyle={&quot;curved&quot;:0,&quot;rounded&quot;:0};" parent="1" vertex="1">
          <mxGeometry x="480" y="70" width="110" height="510" as="geometry" />
        </mxCell>
        <mxCell id="ldjhp6ecMFq0PakG_y3W-7" value="" style="html=1;points=[[0,0,0,0,5],[0,1,0,0,-5],[1,0,0,0,5],[1,1,0,0,-5]];perimeter=orthogonalPerimeter;outlineConnect=0;targetShapes=umlLifeline;portConstraint=eastwest;newEdgeStyle={&quot;curved&quot;:0,&quot;rounded&quot;:0};" parent="ldjhp6ecMFq0PakG_y3W-4" vertex="1">
          <mxGeometry x="50" y="130" width="10" height="20" as="geometry" />
        </mxCell>
        <mxCell id="ldjhp6ecMFq0PakG_y3W-11" value="facturarServicio(Servicio)" style="html=1;verticalAlign=bottom;endArrow=block;curved=0;rounded=0;" parent="1" edge="1">
          <mxGeometry x="0.008" width="80" relative="1" as="geometry">
            <mxPoint x="41" y="146" as="sourcePoint" />
            <mxPoint x="170" y="146" as="targetPoint" />
            <mxPoint as="offset" />
          </mxGeometry>
        </mxCell>
        <mxCell id="1erLHwJ0Aa95xsLBbJs--1" value="return Ticket" style="html=1;verticalAlign=bottom;endArrow=open;dashed=1;endSize=8;curved=0;rounded=0;" edge="1" parent="1">
          <mxGeometry relative="1" as="geometry">
            <mxPoint x="655" y="546" as="sourcePoint" />
            <mxPoint x="41" y="546" as="targetPoint" />
          </mxGeometry>
        </mxCell>
        <mxCell id="1erLHwJ0Aa95xsLBbJs--2" value="&lt;font style=&quot;font-size: 14px;&quot;&gt;Diagrama de secuencia para facturar el paquete &quot;Tiene un año&quot; el cual contiene los tratamientos de vacunar, chequeo general y desparacitación&lt;/font&gt;" style="text;html=1;align=center;verticalAlign=middle;whiteSpace=wrap;rounded=0;" vertex="1" parent="1">
          <mxGeometry x="-6.25" y="20" width="842.5" height="30" as="geometry" />
        </mxCell>
      </root>
    </mxGraphModel>
  </diagram>
</mxfile>
